<svg width="21" height="20" viewBox="0 0 21 20" fill="none" xmlns="http://www.w3.org/2000/svg">
<circle cx="10.5" cy="10" r="8.5" fill="#FFBD09" stroke="#333B47"/>
<path fill-rule="evenodd" clip-rule="evenodd" d="M9.375 7C8.96079 7 8.625 7.33579 8.625 7.75V14.5C8.625 14.9142 8.96079 15.25 9.375 15.25H11.625C12.0392 15.25 12.375 14.9142 12.375 14.5V7.75C12.375 7.33579 12.0392 7 11.625 7H9.375ZM10.5 9.625C11.0178 9.625 11.4375 9.20527 11.4375 8.6875C11.4375 8.16973 11.0178 7.75 10.5 7.75C9.98223 7.75 9.5625 8.16973 9.5625 8.6875C9.5625 9.20527 9.98223 9.625 10.5 9.625ZM10.5 12.0625C11.0178 12.0625 11.4375 11.6428 11.4375 11.125C11.4375 10.6072 11.0178 10.1875 10.5 10.1875C9.98223 10.1875 9.5625 10.6072 9.5625 11.125C9.5625 11.6428 9.98223 12.0625 10.5 12.0625ZM11.4375 13.5625C11.4375 14.0803 11.0178 14.5 10.5 14.5C9.98223 14.5 9.5625 14.0803 9.5625 13.5625C9.5625 13.0447 9.98223 12.625 10.5 12.625C11.0178 12.625 11.4375 13.0447 11.4375 13.5625Z" fill="#333B47"/>
<path d="M11.0625 8.6875C11.0625 8.99816 10.8107 9.25 10.5 9.25C10.1893 9.25 9.9375 8.99816 9.9375 8.6875C9.9375 8.37684 10.1893 8.125 10.5 8.125C10.8107 8.125 11.0625 8.37684 11.0625 8.6875Z" fill="#333B47"/>
<path fill-rule="evenodd" clip-rule="evenodd" d="M10.5 4.75C10.8107 4.75 11.0625 5.00184 11.0625 5.3125V5.6875C11.0625 5.99816 10.8107 6.25 10.5 6.25C10.1893 6.25 9.9375 5.99816 9.9375 5.6875V5.3125C9.9375 5.00184 10.1893 4.75 10.5 4.75Z" fill="#333B47"/>
<path fill-rule="evenodd" clip-rule="evenodd" d="M14.0852 5.66475C14.3049 5.88442 14.3049 6.24058 14.0852 6.46025L13.7102 6.83525C13.4906 7.05492 13.1344 7.05492 12.9148 6.83525C12.6951 6.61558 12.6951 6.25942 12.9148 6.03975L13.2898 5.66475C13.5094 5.44508 13.8656 5.44508 14.0852 5.66475Z" fill="#333B47"/>
<path fill-rule="evenodd" clip-rule="evenodd" d="M6.91475 5.66475C6.69508 5.88442 6.69508 6.24058 6.91475 6.46025L7.28975 6.83525C7.50942 7.05492 7.86558 7.05492 8.08525 6.83525C8.30492 6.61558 8.30492 6.25942 8.08525 6.03975L7.71025 5.66475C7.49058 5.44508 7.13442 5.44508 6.91475 5.66475Z" fill="#333B47"/>
<path fill-rule="evenodd" clip-rule="evenodd" d="M7.875 8.6875C7.875 8.37684 7.62316 8.125 7.3125 8.125H6.75C6.43934 8.125 6.1875 8.37684 6.1875 8.6875C6.1875 8.99816 6.43934 9.25 6.75 9.25H7.3125C7.62316 9.25 7.875 8.99816 7.875 8.6875Z" fill="#333B47"/>
<path fill-rule="evenodd" clip-rule="evenodd" d="M14.8125 8.6875C14.8125 8.37684 14.5607 8.125 14.25 8.125H13.6875C13.3768 8.125 13.125 8.37684 13.125 8.6875C13.125 8.99816 13.3768 9.25 13.6875 9.25H14.25C14.5607 9.25 14.8125 8.99816 14.8125 8.6875Z" fill="#333B47"/>
</svg>
